<svg width="80" height="17" viewBox="0 0 80 17" fill="none" xmlns="http://www.w3.org/2000/svg">
<g clip-path="url(#clip0_1146_1345)">
<path fill-rule="evenodd" clip-rule="evenodd" d="M10.3255 9.34401C10.3255 10.5006 9.91753 11.4441 9.07014 12.1442C8.22274 12.8442 7.12433 13.2095 5.74338 13.2095H0V0H5.36677C8.0972 0 9.85474 1.43051 9.85474 3.74369C9.85474 4.86984 9.4154 5.72206 8.5994 6.36125C9.7606 7.03086 10.3255 8.00479 10.3255 9.34401ZM3.48369 3.01321V5.0829H5.27261C5.9003 5.0829 6.37107 4.71766 6.37107 4.04806C6.37107 3.43933 5.9003 3.01321 5.27261 3.01321H3.48369ZM5.64923 10.1963C6.33967 10.1963 6.84187 9.73968 6.84187 9.07008C6.84187 8.40047 6.37107 7.94395 5.64923 7.94395H3.48369V10.1658H5.64923V10.1963ZM14.6566 9.64839C15.0018 10.4093 15.6923 10.805 16.8221 10.805C17.5126 10.805 18.1089 10.5919 18.5797 10.1354L20.9021 11.7181C19.9606 12.8747 18.5483 13.4834 16.728 13.4834C15.0646 13.4834 13.7465 13.0268 12.7735 12.0833C11.7692 11.1398 11.2985 9.95278 11.2985 8.52227C11.2985 7.12215 11.7692 5.90467 12.7421 4.96117C13.7151 3.9872 14.9705 3.53065 16.4455 3.53065C17.8892 3.53065 19.0818 3.9872 20.0547 4.93073C20.9963 5.87428 21.4671 7.06131 21.4671 8.49182C21.4671 8.91794 21.4357 9.31362 21.3415 9.64839H14.6566ZM18.36 7.48737C18.1089 6.60473 17.4812 6.17861 16.5397 6.17861C15.5354 6.17861 14.9077 6.60473 14.6252 7.48737H18.36ZM27.2418 6.78732H29.2504V3.77411H27.2418V1.12614L24.0092 2.06967V3.80455H22.5655V6.81777H24.0092V9.61794C24.0092 11.1093 24.3858 12.1442 25.1704 12.7224C25.955 13.3008 27.3359 13.4529 29.2504 13.2399V10.4093C27.8067 10.4701 27.2418 10.3484 27.2418 9.52659V6.78732Z" fill="#FF0025"/>
<path fill-rule="evenodd" clip-rule="evenodd" d="M40.0778 12.1442C40.9252 11.4441 41.3332 10.5006 41.3332 9.34401C41.3332 8.00479 40.7683 7.03086 39.6384 6.36125C40.4544 5.72206 40.8938 4.86984 40.8938 3.74369C40.8938 1.43051 39.1363 0 36.4058 0H31.0391V13.2095H36.7511C38.132 13.2095 39.2304 12.8442 40.0778 12.1442ZM34.5227 5.0829V3.01321H36.3117C36.9393 3.01321 37.4101 3.43933 37.4101 4.04806C37.4101 4.71766 36.9393 5.0829 36.3117 5.0829H34.5227ZM37.8495 9.07008C37.8495 9.73968 37.3473 10.1963 36.6569 10.1963V10.1658H34.5227V7.94395H36.6569C37.3787 7.94395 37.8495 8.40047 37.8495 9.07008ZM42.3375 8.49176C42.3375 9.89187 42.8397 11.0789 43.8439 12.0528C44.8483 12.9964 46.0723 13.4834 47.5159 13.4834C48.9597 13.4834 50.1837 13.0268 51.1879 12.0528C52.1923 11.0789 52.6944 9.89187 52.6944 8.49176C52.6944 7.0917 52.1923 5.93512 51.1879 4.96114C50.2151 3.98718 48.9597 3.50019 47.5159 3.50019C46.0723 3.50019 44.8483 3.98718 43.8439 4.96114C42.8397 5.93512 42.3375 7.0917 42.3375 8.49176ZM47.5159 6.54383C48.6772 6.54383 49.4932 7.33518 49.4932 8.49176C49.4932 9.64839 48.6772 10.4397 47.5159 10.4397C46.4175 10.4397 45.5701 9.64839 45.5701 8.49176C45.5701 7.36563 46.4175 6.54383 47.5159 6.54383ZM55.2052 12.0528C54.2009 11.0789 53.6988 9.89187 53.6988 8.49176C53.6988 7.0917 54.2009 5.93512 55.2052 4.96114C56.2095 3.98718 57.4335 3.50019 58.8772 3.50019C60.321 3.50019 61.5763 3.98718 62.549 4.96114C63.5535 5.93512 64.0557 7.0917 64.0557 8.49176C64.0557 9.89187 63.5535 11.0789 62.549 12.0528C61.545 13.0268 60.321 13.4834 58.8772 13.4834C57.4335 13.4834 56.2095 12.9964 55.2052 12.0528ZM60.8232 8.49176C60.8232 7.33518 60.0071 6.54383 58.8459 6.54383C57.7474 6.54383 56.9 7.36563 56.9 8.49176C56.9 9.64839 57.7474 10.4397 58.8459 10.4397C60.0071 10.4397 60.8232 9.64839 60.8232 8.49176ZM79.9992 13.2095V7.42653C79.9992 4.99158 78.5869 3.50019 76.327 3.50019C75.1029 3.50019 74.1929 3.89587 73.5023 4.71766C72.9688 3.89587 72.1219 3.50019 71.0229 3.50019C69.862 3.50019 68.9832 3.89587 68.3872 4.65679V3.77413H65.1541V13.2095H68.3872V8.06569C68.3872 7.0917 68.8575 6.48299 69.7363 6.48299C70.5526 6.48299 70.9604 6.90906 70.9604 7.79176V13.2095H74.1929V8.06569C74.1929 7.0917 74.6638 6.48299 75.5426 6.48299C76.327 6.48299 76.7354 6.90906 76.7354 7.79176V13.2095H79.9992Z" fill="#F8E800"/>
</g>
<defs>
<clipPath id="clip0_1146_1345">
<rect width="80" height="14" fill="white"/>
</clipPath>
</defs>
</svg>
