<?xml version="1.0" encoding="UTF-8"?>
<svg id="Camada_1" data-name="Camada 1" xmlns="http://www.w3.org/2000/svg" viewBox="0 0 1814.89 609.91">
  <defs>
    <style>
      .cls-1 {
        fill: #fff;
      }
      .cls-2 {
        fill: #cf0;
      }
    </style>
  </defs>
  <path class="cls-1" d="M0,304.12c0-31.71,7.81-61.04,23.44-88,15.63-26.95,36.81-48.25,63.54-63.88,26.73-15.63,55.95-23.44,87.66-23.44s60.93,7.82,87.66,23.44c26.73,15.63,48.02,36.92,63.88,63.88,15.86,26.95,23.78,56.29,23.78,88s-7.93,61.04-23.78,88c-15.86,26.95-37.15,48.25-63.88,63.88-26.73,15.63-55.95,23.44-87.66,23.44s-61.61-8.61-85.62-25.82v156.29H0v-305.79h0ZM175.32,393.14c24.92,0,45.53-8.49,61.84-25.48,16.31-16.99,24.46-38.17,24.46-63.54s-8.15-46.55-24.46-63.54c-16.31-16.99-36.92-25.48-61.84-25.48s-45.75,8.49-62.52,25.48c-16.76,16.99-25.14,38.17-25.14,63.54s8.38,46.55,25.14,63.54c16.76,16.99,37.6,25.48,62.52,25.48Z"/>
  <polygon class="cls-1" points="379.02 481.76 467.36 481.76 467.36 130.34 379.02 130.34 379.02 481.76"/>
  <g>
    <g>
      <polygon class="cls-2" points="759.35 130.34 719.54 130.34 497.44 481.76 537.25 481.76 759.35 130.34"/>
      <polygon class="cls-2" points="785.16 130.34 563.06 481.76 602.87 481.76 824.97 130.34 785.16 130.34"/>
    </g>
    <polygon class="cls-1" points="824.97 481.76 719.54 481.76 497.44 130.34 602.87 130.34 824.97 481.76"/>
  </g>
  <path class="cls-1" d="M1179.02,217.79c-15.86-26.95-37.15-48.25-63.88-63.87-26.73-15.63-55.95-23.44-87.66-23.44s-61.61,8.61-85.62,25.82V0h-89.02v305.79c0,31.71,7.81,61.04,23.44,88,15.63,26.95,36.81,48.25,63.54,63.88,26.73,15.63,55.95,23.44,87.66,23.44s60.93-7.81,87.66-23.44c26.73-15.63,48.02-36.92,63.88-63.88,15.86-26.95,23.78-56.29,23.78-88s-7.93-61.04-23.78-88ZM1090,369.32c-16.31,16.99-36.92,25.48-61.84,25.48s-45.75-8.49-62.52-25.48c-16.76-16.99-25.14-38.17-25.14-63.54s8.38-46.55,25.14-63.54c16.76-16.99,37.6-25.48,62.52-25.48h0c24.92,0,45.53,8.49,61.84,25.48,16.31,16.99,24.46,38.17,24.46,63.54s-8.15,46.55-24.46,63.54Z"/>
  <path class="cls-1" d="M1581.82,298.31c-.91-34.43-10.08-64.33-27.52-89.7-17.44-25.37-39.53-44.74-66.25-58.1-26.73-13.36-54.59-20.05-83.58-20.05-31.71,0-60.82,8.04-87.32,24.12-26.5,16.08-47.34,37.6-62.52,64.55-15.18,26.95-22.76,56.06-22.76,87.32h0c0,31.71,7.81,60.93,23.44,87.66,15.63,26.73,36.81,47.91,63.54,63.54,26.73,15.63,56.17,23.44,88.34,23.44,35.33,0,67.5-9.74,96.49-29.22,28.99-19.48,50.51-44.85,64.55-76.11l-105.33-.68c-7.25,5.89-15.29,10.65-24.12,14.27-8.83,3.62-20.27,5.44-34.32,5.44-19.93,0-36.81-4.87-50.62-14.61-13.82-9.74-22.76-22.99-26.84-39.75h252.1c2.27-13.59,3.17-27.63,2.72-42.13ZM1320.37,269.77c7.25-16.31,17.67-29.22,31.26-38.73,13.59-9.51,29.9-14.27,48.93-14.27,17.21,0,33.18,4.87,47.91,14.61,14.72,9.74,25.48,22.54,32.28,38.39h-160.37Z"/>
  <path class="cls-1" d="M1782.71,393.39c-46.88,0-84.88-38-84.88-84.88v-92.02h117.06v-86.3h-117.06S1697.83,0,1697.83,0h-86.87v300.76c0,100.48,81.46,181.94,181.94,181.94h21.98v-89.31h-32.18Z"/>
</svg>
